<?xml version="1.0" encoding="UTF-8" standalone="no"?>
<!-- Created with Inkscape (http://www.inkscape.org/) -->

<svg
   width="12.7mm"
   height="12.700049mm"
   viewBox="0 0 12.7 12.700049"
   version="1.1"
   id="svg1"
   xml:space="preserve"
   xmlns:inkscape="http://www.inkscape.org/namespaces/inkscape"
   xmlns:sodipodi="http://sodipodi.sourceforge.net/DTD/sodipodi-0.dtd"
   xmlns="http://www.w3.org/2000/svg"
   xmlns:svg="http://www.w3.org/2000/svg"><sodipodi:namedview
     id="namedview1"
     pagecolor="#ffffff"
     bordercolor="#000000"
     borderopacity="0.25"
     inkscape:showpageshadow="2"
     inkscape:pageopacity="0.0"
     inkscape:pagecheckerboard="0"
     inkscape:deskcolor="#d1d1d1"
     inkscape:document-units="mm"
     inkscape:zoom="7.8822671"
     inkscape:cx="-755.42987"
     inkscape:cy="403.50066"
     inkscape:window-width="1366"
     inkscape:window-height="705"
     inkscape:window-x="-8"
     inkscape:window-y="-8"
     inkscape:window-maximized="1"
     inkscape:current-layer="layer1"><inkscape:page
       x="0"
       y="0"
       width="12.7"
       height="12.700049"
       id="page2"
       margin="0"
       bleed="0" /></sodipodi:namedview><defs
     id="defs1"><inkscape:path-effect
       effect="fillet_chamfer"
       id="path-effect51"
       is_visible="true"
       lpeversion="1"
       nodesatellites_param="F,0,0,1,0,0.79374998,0,1 @ F,0,0,1,0,0.79374998,0,1 @ F,0,0,1,0,0.79374998,0,1 @ F,0,0,1,0,0.79374998,0,1"
       radius="3"
       unit="px"
       method="auto"
       mode="F"
       chamfer_steps="1"
       flexible="false"
       use_knot_distance="true"
       apply_no_radius="true"
       apply_with_radius="true"
       only_selected="false"
       hide_knots="false" /></defs><g
     inkscape:label="Layer 1"
     inkscape:groupmode="layer"
     id="layer1"
     transform="translate(206.56649,-100.2556)"><g
       id="g51"
       transform="translate(-207.56796,264.71349)"
       style="fill:#0892a5;fill-opacity:1"
       inkscape:export-filename="logo.png"
       inkscape:export-xdpi="300"
       inkscape:export-ydpi="300"><text
         xml:space="preserve"
         style="font-style:normal;font-variant:normal;font-weight:normal;font-stretch:normal;font-size:9.14436px;font-family:'Enclave Demo';-inkscape-font-specification:'Enclave Demo, Normal';font-variant-ligatures:normal;font-variant-caps:normal;font-variant-numeric:normal;font-variant-east-asian:normal;text-align:start;writing-mode:lr-tb;direction:ltr;text-anchor:start;fill:#0892a5;fill-opacity:1;stroke-width:0.762029"
         x="0.41643035"
         y="-158.11449"
         id="text50"
         transform="scale(1.000117,0.99988303)"
         inkscape:export-filename="logo.png"
         inkscape:export-xdpi="300"
         inkscape:export-ydpi="300"><tspan
           sodipodi:role="line"
           id="tspan50"
           x="0.41643035"
           y="-158.11449"
           style="fill:#0892a5;fill-opacity:1;stroke-width:0.762029">P</tspan></text><text
         xml:space="preserve"
         style="font-style:normal;font-variant:normal;font-weight:normal;font-stretch:normal;font-size:9.14436px;font-family:'Enclave Demo';-inkscape-font-specification:'Enclave Demo, Normal';font-variant-ligatures:normal;font-variant-caps:normal;font-variant-numeric:normal;font-variant-east-asian:normal;text-align:start;writing-mode:lr-tb;direction:ltr;text-anchor:start;fill:#0892a5;fill-opacity:1;stroke-width:0.762029"
         x="8.6052752"
         y="-151.76523"
         id="text51"
         transform="scale(1.000117,0.99988303)"><tspan
           sodipodi:role="line"
           id="tspan51"
           x="8.6052752"
           y="-151.76523"
           style="fill:#0892a5;fill-opacity:1;stroke-width:0.762029">x</tspan></text><path
         style="fill:#0892a5;fill-opacity:1;stroke-width:0.651854"
         d="m 2.6811268,-151.76231 c -0.1683276,-0.0127 -0.3294672,-0.0863 -0.4494718,-0.20536 -0.1171486,-0.11619 -0.183898,-0.24989 -0.2096677,-0.41999 -0.00391,-0.0259 -0.0043,-0.0705 -0.00502,-0.59015 -5.137e-4,-0.3725 5.81e-5,-0.56676 0.0017,-0.57581 0.00418,-0.0231 0.019681,-0.0511 0.037583,-0.0678 0.025516,-0.0238 0.052871,-0.0345 0.088272,-0.0346 0.027935,-4e-5 0.046312,0.006 0.076807,0.0263 0.053379,0.0351 0.094062,0.057 0.1456609,0.0778 0.2176778,0.0882 0.4682504,0.0671 0.6674651,-0.056 0.1225837,-0.0758 0.2195254,-0.18216 0.2823137,-0.30984 0.039109,-0.0796 0.060459,-0.15031 0.07217,-0.23924 0.00568,-0.0433 0.0056,-0.13641 -1.754e-4,-0.17957 -0.019805,-0.14796 -0.075754,-0.27719 -0.1676931,-0.38732 -0.1241444,-0.14871 -0.2961866,-0.24209 -0.4890099,-0.26544 -0.039356,-0.004 -0.1260482,-0.005 -0.1629488,-8.8e-4 -0.127239,0.0145 -0.2407016,0.0563 -0.3465309,0.12761 -0.029825,0.0202 -0.050061,0.0269 -0.079629,0.0269 -0.017582,-2e-5 -0.026866,-8.7e-4 -0.038685,-0.005 -0.03875,-0.0135 -0.068097,-0.0426 -0.081162,-0.0804 l -0.00554,-0.0161 v -0.56485 c 0,-0.61092 -6.154e-4,-0.58107 0.013417,-0.65139 0.041677,-0.20889 0.1747417,-0.38837 0.3646399,-0.49184 0.029943,-0.0163 0.074664,-0.0359 0.1089826,-0.0479 0.028385,-0.01 0.088538,-0.0245 0.1244221,-0.0303 l 0.033867,-0.005 0.5734894,-8.7e-4 c 0.5434648,-8.8e-4 0.5741645,-8.8e-4 0.5863805,-0.006 0.0273,-0.009 0.050192,-0.0258 0.065614,-0.0474 0.032789,-0.046 0.032611,-0.10698 -4.346e-4,-0.15031 -0.011825,-0.0155 -0.038251,-0.0604 -0.053789,-0.0914 -0.056966,-0.11366 -0.081749,-0.22636 -0.078349,-0.35631 0.00205,-0.076 0.012075,-0.13756 0.033539,-0.20469 0.083365,-0.26069 0.2994983,-0.45447 0.5660148,-0.50747 0.056537,-0.0112 0.082205,-0.0137 0.1473293,-0.0137 0.064918,0 0.09106,0.003 0.1461119,0.0134 0.066096,0.0132 0.1155755,0.03 0.1789875,0.0607 0.2226993,0.10765 0.3774324,0.31721 0.4154236,0.56261 0.00723,0.0468 0.00906,0.14136 0.00366,0.1897 -0.013797,0.12367 -0.052013,0.22909 -0.1221797,0.33698 -0.027345,0.042 -0.031067,0.0521 -0.031183,0.0845 -7.67e-5,0.0205 9.817e-4,0.0286 0.00544,0.0411 0.013708,0.0387 0.042071,0.067 0.081009,0.0811 l 0.015556,0.006 0.5734891,8.8e-4 0.5734883,8.7e-4 0.03237,0.005 c 0.098985,0.0162 0.1825527,0.0463 0.2638774,0.0948 0.1348814,0.0804 0.2419482,0.20639 0.2997948,0.35263 0.021107,0.0534 0.033003,0.0976 0.043891,0.16312 0.00527,0.0316 0.00527,0.032 0.0066,0.6038 l 0.00134,0.57216 0.00527,0.0152 c 0.019697,0.0574 0.081696,0.0959 0.1384751,0.086 0.024105,-0.004 0.035895,-0.01 0.0732,-0.0343 0.040464,-0.0266 0.1142002,-0.0635 0.1581316,-0.0793 0.1703681,-0.061 0.3600073,-0.058 0.5270609,0.008 0.134239,0.0529 0.253159,0.14585 0.335882,0.26221 0.123034,0.17309 0.166491,0.38875 0.1205,0.59801 -0.0034,0.0154 -0.01265,0.0477 -0.02058,0.0715 -0.03648,0.10999 -0.09589,0.2064 -0.178727,0.29002 -0.252443,0.25485 -0.643625,0.29567 -0.9437204,0.0985 -0.018501,-0.0121 -0.039465,-0.0245 -0.046604,-0.0271 -0.016519,-0.006 -0.052388,-0.009 -0.070504,-0.004 -0.042187,0.01 -0.079643,0.0442 -0.094142,0.0865 -0.00384,0.0114 -0.00419,0.0527 -0.00553,0.58435 -0.00134,0.57024 -0.00134,0.57225 -0.00652,0.60387 -0.021232,0.12915 -0.064338,0.23346 -0.135787,0.32856 -0.1282163,0.17067 -0.3147418,0.27246 -0.5285308,0.28844 -0.042365,0.004 -3.5950334,0.004 -3.63697,-2.4e-4 z"
         id="path50"
         sodipodi:nodetypes="cssssssccssscscccscccsssccccccsscscsccscssscccccsscccscscsssssccccccsccc" /><path
         style="fill:#0892a5;fill-opacity:1;stroke-width:0.264583"
         id="rect51"
         width="5.5482306"
         height="5.4297523"
         x="6.826138"
         y="-164.4579"
         inkscape:path-effect="#path-effect51"
         sodipodi:type="rect"
         d="m 7.619888,-164.4579 h 3.960731 a 0.79374998,0.79374998 45 0 1 0.79375,0.79375 v 3.84225 a 0.79374998,0.79374998 135 0 1 -0.79375,0.79375 H 7.619888 a 0.79374998,0.79374998 45 0 1 -0.79375,-0.79375 v -3.84225 a 0.79374998,0.79374998 135 0 1 0.79375,-0.79375 z"
         transform="matrix(1,0,0,0.99976607,0.02918483,-0.03847229)" /></g></g></svg>
